<?xml version="1.0" standalone="no"?>
<!DOCTYPE svg PUBLIC "-//W3C//DTD SVG 1.1//EN" "http://www.w3.org/Graphics/SVG/1.1/DTD/svg11.dtd" >
<!--
2013-9-30: Created.
-->
<svg>
<metadata>
Created by iconfont
</metadata>
<defs>

<font id="iconfont" horiz-adv-x="1024" >
  <font-face
    font-family="iconfont"
    font-weight="500"
    font-stretch="normal"
    units-per-em="1024"
    ascent="896"
    descent="-128"
  />
    <missing-glyph />
    
    <glyph glyph-name="fenxiang" unicode="&#58903;" d="M841.142857 274.285714c-59.927771 0-112.607086-29.215086-145.963886-73.713371l-264.572343 124.463543C435.856457 343.8208 438.857143 363.536457 438.857143 384s-3.000686 40.1792-8.250514 58.964114l264.572343 124.463543C728.535771 522.929371 781.215086 493.714286 841.142857 493.714286c100.999314 0 182.857143 81.857829 182.857143 182.857143S942.142171 859.428571 841.142857 859.428571 658.285714 777.570743 658.285714 676.571429c0-14.893714 2.285714-29.143771 5.6064-43.000686l-264.356571-124.392229C359.892114 566.107429 294.070857 603.428571 219.428571 603.428571 98.2144 603.428571 0 505.214171 0 384s98.2144-219.428571 219.428571-219.428571c74.642286 0 140.463543 37.321143 180.106971 94.250057l264.356571-124.392229C660.571429 120.572343 658.285714 106.322286 658.285714 91.428571c0-100.999314 81.857829-182.857143 182.857143-182.857143s182.857143 81.857829 182.857143 182.857143S942.142171 274.285714 841.142857 274.285714zM841.142857 786.285714c60.500114 0 109.714286-49.214171 109.714286-109.714286s-49.214171-109.714286-109.714286-109.714286-109.714286 49.214171-109.714286 109.714286S780.642743 786.285714 841.142857 786.285714zM219.428571 237.714286c-80.643657 0-146.285714 65.642057-146.285714 146.285714s65.642057 146.285714 146.285714 146.285714 146.285714-65.642057 146.285714-146.285714S300.072229 237.714286 219.428571 237.714286zM841.142857-18.285714c-60.500114 0-109.714286 49.214171-109.714286 109.714286s49.214171 109.714286 109.714286 109.714286 109.714286-49.214171 109.714286-109.714286S901.642971-18.285714 841.142857-18.285714z"  horiz-adv-x="1024" />

    
    <glyph glyph-name="menu" unicode="&#58971;" d="M47.86028 704.411589l112.261052 0 0-112.20272-112.261052 0 0 112.20272ZM280.044244 704.411589l696.088312 0 0-112.20272-696.088312 0 0 112.20272ZM47.86028 472.227625l112.261052 0 0-112.20272-112.261052 0 0 112.20272ZM280.044244 472.227625l696.088312 0 0-112.20272-696.088312 0 0 112.20272ZM47.86028 240.04366l112.261052 0 0-112.20272-112.261052 0 0 112.20272ZM280.044244 240.04366l696.088312 0 0-112.20272-696.088312 0 0 112.20272ZM47.86028 7.859696l112.261052 0 0-112.20272-112.261052 0 0 112.20272ZM280.044244 7.859696l696.088312 0 0-112.20272-696.088312 0 0 112.20272Z"  horiz-adv-x="1024" />

    
    <glyph glyph-name="jiantouxiangxia" unicode="&#58932;" d="M512.002047 204.521303 192.921871 563.478697l638.156258 0L512.002047 204.521303z"  horiz-adv-x="1024" />

    
    <glyph glyph-name="dizhi" unicode="&#58931;" d="M512 64c-5.12 0-7.68 2.56-10.24 5.12-10.24 12.8-279.04 312.32-279.04 468.48 0 158.72 130.56 289.28 289.28 289.28s289.28-130.56 289.28-289.28c0-156.16-266.24-455.68-279.04-468.48C519.68 64 517.12 64 512 64zM512 796.16c-143.36 0-258.56-115.2-258.56-258.56 0-128 207.36-376.32 258.56-435.2 51.2 58.88 258.56 307.2 258.56 435.2C773.12 678.4 655.36 796.16 512 796.16zM512 440.32c-58.88 0-107.52 48.64-107.52 107.52s48.64 107.52 107.52 107.52 107.52-48.64 107.52-107.52S570.88 440.32 512 440.32zM512 622.08c-40.96 0-76.8-33.28-76.8-76.8s33.28-76.8 76.8-76.8 76.8 33.28 76.8 76.8S555.52 622.08 512 622.08zM517.12-58.88c-2.56 0-2.56 0-5.12 0-89.6 0-256 0-335.36 76.8-25.6 25.6-35.84 48.64-28.16 74.24 12.8 53.76 97.28 81.92 133.12 92.16 7.68 2.56 15.36-2.56 17.92-10.24 2.56-7.68-2.56-15.36-10.24-17.92-46.08-12.8-104.96-38.4-112.64-69.12-2.56-12.8 2.56-28.16 20.48-46.08 69.12-69.12 232.96-69.12 312.32-69.12 76.8 0 238.08 0 309.76 64 17.92 17.92 25.6 33.28 23.04 48.64-7.68 30.72-61.44 56.32-104.96 69.12-7.68 2.56-12.8 10.24-10.24 17.92 2.56 7.68 10.24 12.8 17.92 10.24 33.28-10.24 115.2-38.4 125.44-92.16 5.12-25.6-5.12-51.2-33.28-76.8C762.88-56.32 604.16-58.88 517.12-58.88z"  horiz-adv-x="1024" />

    
    <glyph glyph-name="jiantouxiangxia1" unicode="&#58901;" d="M959.429379 552.785148 890.590548 621.621932 511.268336 242.300744 131.944078 621.621932 63.105247 552.785148 501.1857 114.705718 521.348925 114.705718Z"  horiz-adv-x="1024" />

    
    <glyph glyph-name="xiazai6" unicode="&#58886;" d="M324.211517 384.194369 787.889594 822.917417c16.19422 16.630365 16.19422 43.974704 0 60.605068-16.19422 16.630365-42.495607 16.630365-58.613976 0L235.750113 416.639698c-8.647031-8.969398-12.344775-20.934917-11.719003-32.445329-0.644735-11.90863 3.071972-23.874149 11.719003-32.824585l493.506542-466.882788c16.118369-16.649327 42.438718-16.649327 58.613976 0 16.19422 17.085471 16.19422 43.974704 0 60.605068L324.211517 384.194369"  horiz-adv-x="1024" />

    
    <glyph glyph-name="2501caidan" unicode="&#58965;" d="M192.662463 255.570979l637.429711 0 0-70.827115-637.429711 0 0 70.827115ZM192.662463 449.00655l637.429711 0 0-70.825069-637.429711 0 0 70.825069ZM192.662463 639.341502l637.429711 0 0-70.825069-637.429711 0 0 70.825069Z"  horiz-adv-x="1024" />

    
    <glyph glyph-name="fenxiang1" unicode="&#58895;" d="M748.33973 768.018164 272.978185 768.018164c-80.101339 0-145.035234-64.934918-145.035234-145.035234l0-475.361545c0-80.101339 64.934918-145.035234 145.035234-145.035234l475.361545 0c80.101339 0 145.035234 64.934918 145.035234 145.035234L893.374964 622.98293C893.374964 703.084269 828.441069 768.018164 748.33973 768.018164zM578.372663 274.49498l0 101.470019c-210.822566 35.293831-322.509275-247.553119-322.509275-247.553119 0 438.249299 322.509275 411.890978 322.509275 411.890978L578.372663 642.876002l189.175547-184.189999L578.372663 274.49498z"  horiz-adv-x="1024" />

    
    <glyph glyph-name="tubiao" unicode="&#58992;" d="M929.295093 22.525032 119.673029 22.525032 63.904067 22.525032 63.904067 78.396323l0 586.341561c0 15.451584 12.484061 27.935645 27.935645 27.935645 15.451584 0 27.935645-12.484061 27.935645-27.935645l0-586.341561 809.622065 0c15.451584 0 27.935645-12.484061 27.935645-27.935645C957.230738 35.009094 944.746677 22.525032 929.295093 22.525032L929.295093 22.525032zM845.590487 134.267613l-55.87129 0c-30.800839 0-55.87129 24.968122-55.87129 55.87129L733.847906 525.059658c0 30.800839 24.968122 55.87129 55.87129 55.87129l55.87129 0c30.800839 0 55.87129-24.968122 55.87129-55.87129l0-335.023084C901.461777 159.235735 876.391326 134.267613 845.590487 134.267613L845.590487 134.267613zM566.438693 134.267613l-55.87129 0c-30.800839 0-55.87129 24.968122-55.87129 55.87129L454.696113 692.5712c0 30.800839 24.968122 55.87129 55.87129 55.87129l55.87129 0c30.800839 0 55.87129-24.968122 55.87129-55.87129l0-502.534626C622.207655 159.235735 597.239532 134.267613 566.438693 134.267613L566.438693 134.267613zM287.184571 134.267613l-55.87129 0c-30.800839 0-55.87129 24.968122-55.87129 55.87129L175.441991 413.419406c0 30.800839 24.968122 55.87129 55.87129 55.87129l55.87129 0c30.800839 0 55.87129-24.968122 55.87129-55.87129l0-223.382832C343.055861 159.235735 318.087739 134.267613 287.184571 134.267613L287.184571 134.267613z"  horiz-adv-x="1024" />

    
    <glyph glyph-name="dengdai" unicode="&#58911;" d="M60.014 353.615c0 37.982 30.385 68.367 68.367 68.367 45.578 0 75.964-30.385 75.964-68.367 0-45.578-30.385-75.964-75.964-75.964-37.982 0-68.367 30.385-68.367 75.964zM151.171 619.488v0c0 53.175 37.982 98.753 91.157 98.753s98.753-45.578 98.753-98.753v0c0-53.175-45.578-91.157-98.753-91.157s-91.157 37.982-91.157 91.157v0zM189.153 80.144v0c0 30.385 22.789 53.175 53.175 53.175s53.175-22.789 53.175-53.175v0c0-30.385-22.789-53.175-53.175-53.175s-53.175 22.789-53.175 53.175zM455.027-33.802v0c0 37.982 22.789 60.772 60.772 60.772s60.772-22.789 60.772-60.772v0c0-37.982-22.789-60.772-60.772-60.772-37.982 0-60.772 22.789-60.772 60.772zM751.287 80.144c0 22.789 15.193 37.982 37.982 37.982s37.982-15.193 37.982-37.982c0-22.789-15.193-37.982-37.982-37.982-22.789 0-37.982 15.193-37.982 37.982zM834.847 353.615c0 30.385 30.385 60.772 68.367 60.772 30.385 0 60.772-30.385 60.772-60.772 0-37.982-30.385-68.367-60.772-68.367-37.982 0-68.367 30.385-68.367 68.367zM660.13 619.488c0 75.964 60.772 129.139 129.139 129.139s129.139-53.175 129.139-129.139c0-68.367-60.772-129.139-129.139-129.139-68.367 0-129.139 60.772-129.139 129.139zM386.66 733.434c0 68.367 60.772 129.139 129.139 129.139s129.139-60.772 129.139-129.139c0-68.367-60.772-129.139-129.139-129.139-68.367 0-129.139 60.772-129.139 129.139z"  horiz-adv-x="1024" />

    
    <glyph glyph-name="mine" unicode="&#58941;" d="M512.000098 896c283.569176 0 511.999902-228.923033 511.999902-512.984517 0-283.076869-229.41534-511.26144-513.722978-511.015286C227.200153-127.753649-0.245957 101.907845 0.000197 386.70779 0.246351 667.815428 229.907845 896 512.000098 896zM872.615414 84.923233c0.492308 0.492308 1.723077 1.723077 2.707692 2.953846 86.399983 108.307671 120.369208 231.138417 99.938442 367.753775-17.723074 118.892285-74.584601 216.615343-167.876891 292.184559-102.39998 82.95383-220.061496 116.430747-350.769163 101.661519C354.707821 837.907703 265.600146 796.800019 191.754006 726.153879c-112.73844-107.815364-161.723046-240.738415-145.476895-396.307616 9.353844-89.846137 44.307684-169.599967 100.43075-239.999954 4.430768-5.661537 7.876922-5.907691 14.27692-3.692307 68.923064 24.61538 137.846127 49.23076 206.769191 73.107678 9.599998 3.199999 13.292305 7.630768 13.538459 16.984612 0.246154 26.338456-1.96923 51.938452-12.30769 76.799985-7.630768 18.461535-11.569229 38.153839-17.47692 57.353835-2.461538 7.630768-5.661537 15.015382-9.107691 22.153842-23.138457 44.799991-39.630762 90.584598-24.861534 142.030742 1.230769 4.184615 1.96923 8.861537 1.723077 13.292305-1.96923 25.353841-3.446153 50.707683-7.13846 75.81537-8.861537 63.753834 12.061536 115.938439 58.584604 158.7692 63.753834 58.830758 198.646116 59.323066 264.861488 14.030767 59.076912-40.369223 85.907676-96.738443 78.276908-168.615352-2.707692-25.599995-6.399999-51.19999-6.892306-77.046139-0.492308-14.27692 6.646153-28.799994 6.646153-43.076915 0-42.830761-9.599998-83.446138-33.72307-119.8769-2.215384-3.199999-3.692307-7.384614-4.923076-11.076921-7.876922-25.353841-14.769228-50.953836-23.876918-75.81537-7.630768-20.430765-14.523074-40.615377-13.784613-63.015372 0.246154-10.33846 3.199999-15.507689 13.292305-18.215381 20.430765-5.661537 40.615377-12.30769 60.799988-19.199996C764.80005 122.584764 818.461578 103.630922 872.615414 84.923233z"  horiz-adv-x="1024" />

    
    <glyph glyph-name="hongbao" unicode="&#58983;" d="M888.955669 795.998144c-7.304398 14.292415-19.615595 25.588942-34.629849 31.582767a66.338554 66.338554 0 0 1-24.652087 4.73547H194.861759a66.347769 66.347769 0 0 1-24.267106-4.583935c-15.079783-5.91089-27.470843-17.15827-34.857152-31.427136a66.234118 66.234118 0 0 1-7.42624-30.539428v-763.531764c0-36.755435 29.796087-66.550498 66.550498-66.550499h634.811974c36.755435 0 66.550498 29.796087 66.550498 66.550499v763.531764a66.220807 66.220807 0 0 1-7.268562 30.232262z m-84.574976-10.119058L543.264338 567.859088c-17.005711-14.200266-41.732542-14.248388-58.793543-0.115699L221.12237 785.879086h583.258323z m45.406243-783.644968c0-11.090726-9.022477-20.113203-20.113203-20.113204H194.861759c-11.090726 0-20.113203 9.022477-20.113203 20.113204V763.991489l280.099189-232.011391c17.099909-14.163406 38.023005-21.239477 58.950198-21.239477 21.043915 0 42.089878 7.161054 59.229718 21.471899L849.786936 763.295247v-761.061129zM655.28968 460.176044L550.608668 282.092694h82.484202v-39.349961h-96.104949v-54.232134h96.104949v-39.853713h-96.104949v-78.952821h-49.439326v78.952821H387.912266v39.853713h99.636329v54.232134H387.912266v39.349961h85.006031L369.245812 460.176044h55.746461c48.429776-88.454477 77.85624-144.535748 88.285536-168.246884h1.008527c3.53138 9.75046 13.198906 29.426464 29.007695 59.024941l59.277841 109.221943h52.717808z"  horiz-adv-x="1024" />

    
    <glyph glyph-name="dengdai1" unicode="&#58918;" d="M493.056038 775.985392c235.263529 0 426.341547-191.078018 426.341547-426.290347 0-235.263529-191.078018-426.341547-426.290347-426.341548-235.263529 0-426.341547 191.078018-426.341548 426.341548 0 235.21233 191.078018 426.290347 426.341548 426.290347z m0 51.404697a477.439045 477.439045 0 0 1-477.643845-477.695044A477.439045 477.439045 0 0 1 493.107238-128a477.439045 477.439045 0 0 1 477.695044 477.695045 477.439045 477.439045 0 0 1-477.695044 477.695044z m246.578707-477.695044h-210.585179s-25.702349 0-25.702349 25.651148V585.982572s-5.11999 20.479959-25.651148 20.479959-25.702349-20.479959-25.702349-20.479959v-251.698697s0-35.942328 35.942328-35.942328h251.698697s20.531159 5.11999 20.531159 25.651149-20.479959 25.702349-20.479959 25.702349zM251.699721 894.154756C24.679375 918.269907 0.001024 698.980746 0.001024 698.980746s5.631989-20.582359 25.702349-20.582359c20.479959 0 25.651149 20.582359 25.651148 20.582359C75.520873 868.452407 251.699721 842.750058 251.699721 842.750058s20.531159 5.11999 20.531159 25.651149-20.531159 25.702349-20.531159 25.702349z m486.911026-2.047996s-19.507161-5.11999-19.507161-24.166352c0-19.507161 19.507161-24.115152 19.507161-24.115152s169.471661 24.627151 192.614015-135.628528c0 0 5.11999-19.507161 24.67835-19.507161 19.455961 0 24.627151 19.507161 24.627151 19.507161S957.439109 915.197914 738.610747 892.10676z"  horiz-adv-x="1024" />

    
    <glyph glyph-name="movie" unicode="&#59067;" d="M488 480c-57.6 0-104 46.4-104 104s46.4 104 104 104 104-46.4 104-104-46.4-104-104-104z m0 144c-22.4 0-40-17.6-40-40s17.6-40 40-40 40 17.6 40 40-17.6 40-40 40zM312 256c-57.6 0-104 46.4-104 104s46.4 104 104 104 104-46.4 104-104-46.4-104-104-104z m0 144c-22.4 0-40-17.6-40-40s17.6-40 40-40 40 17.6 40 40-17.6 40-40 40zM536 80c-57.6 0-104 46.4-104 104s46.4 104 104 104 104-46.4 104-104-46.4-104-104-104z m0 144c-22.4 0-40-17.6-40-40s17.6-40 40-40 40 17.6 40 40-17.6 40-40 40zM712 304c-57.6 0-104 46.4-104 104s46.4 104 104 104 104-46.4 104-104-46.4-104-104-104z m0 144c-22.4 0-40-17.6-40-40s17.6-40 40-40 40 17.6 40 40-17.6 40-40 40zM928-64H512C265.6-64 64 137.6 64 384S265.6 832 512 832s448-201.6 448-448c0-121.6-48-235.2-134.4-320-12.8-12.8-33.6-12.8-44.8 0-12.8 12.8-12.8 33.6 0 44.8C854.4 182.4 896 280 896 384 896 595.2 723.2 768 512 768S128 595.2 128 384s172.8-384 384-384h416c17.6 0 32-14.4 32-32s-14.4-32-32-32z"  horiz-adv-x="1024" />

    
    <glyph glyph-name="icon-test" unicode="&#58946;" d="M850.65856 336.64384c2.2016 15.95904 3.30496 31.79776 3.30496 47.06816 0 15.28064-1.10336 31.10016-3.30496 47.06816a38.12736 38.12736 0 0 0 11.21408 32.51968l76.68224 74.34496-80.00512 138.94016-102.592-29.41952a37.73184 37.73184 0 0 0-10.42688-1.47584 37.85728 37.85728 0 0 0-23.3216 8.0384c-24.85248 19.43168-52.17408 35.27808-81.19552 47.10528-11.20512 4.55936-19.56992 14.23232-22.51264 25.99424l-25.84576 103.69024H432.64l-25.8496-103.69024c-2.93888-11.76192-11.30368-21.43616-22.51776-25.99424-29.02656-11.8272-56.3392-27.6736-81.19552-47.10528a37.83168 37.83168 0 0 0-23.31136-8.0384c-3.49056 0-6.9952 0.49152-10.42944 1.47584l-102.59456 29.41952-80.00768-138.93888 76.6784-74.34496a38.08384 38.08384 0 0 0 11.21024-32.51968c-2.18624-15.96928-3.30112-31.79776-3.30112-47.06816s1.11488-31.1104 3.30112-47.06816a38.08768 38.08768 0 0 0-11.21024-32.51968l-76.6784-74.34496 80.00768-138.94016 102.59456 29.41952a37.82528 37.82528 0 0 0 10.42944 1.47584c8.3456 0 16.57088-2.7648 23.31136-8.03968 24.85632-19.4304 52.16896-35.27808 81.19552-47.09504a37.98528 37.98528 0 0 0 22.51776-26.0032L432.64-63.09376h160.01408l25.84576 103.69024a38.00704 38.00704 0 0 0 22.51264 26.0032c29.02144 11.81696 56.34304 27.66464 81.19552 47.09504a37.8432 37.8432 0 0 0 23.3216 8.03968c3.49056 0 7.00032-0.4928 10.42688-1.47584l102.592-29.41952 80.00512 138.94016-76.68224 74.34496a38.12864 38.12864 0 0 0-11.2128 32.51968M517.42848 193.58208c-105.00864 0-190.12992 85.12256-190.12992 190.12992s85.12128 190.12992 190.12992 190.12992c105.00864 0 190.12992-85.12256 190.12992-190.12992s-85.12128-190.12992-190.12992-190.12992M517.42848 649.8944c-147.00672 0-266.1824-119.1744-266.1824-266.1824s119.17568-266.18368 266.1824-266.18368c147.00928 0 266.1824 119.17568 266.1824 266.18368S664.43776 649.8944 517.42848 649.8944m0-456.31232c-105.00864 0-190.12992 85.12256-190.12992 190.12992s85.12128 190.12992 190.12992 190.12992c105.00864 0 190.12992-85.12256 190.12992-190.12992s-85.12128-190.12992-190.12992-190.12992M441.37728-44.08064h19.01312v19.01312h-19.01312v-19.01312z m19.01184-19.01312h19.01312v19.01312h-19.01312v-19.01312z m19.01312 19.01312h19.01312v19.01312h-19.01312v-19.01312z m19.0144-19.01312h19.01312v19.01312h-19.01312v-19.01312z m-76.05248 0h19.01312v19.01312h-19.01312v-19.01312z m95.06432 19.01312h19.01312v19.01312h-19.01312v-19.01312z m19.0144-19.01312h19.01312v19.01312h-19.01312v-19.01312z m57.03808 19.01312h19.01312v19.01312h-19.01312v-19.01312z m-38.02624 0h19.01312v19.01312h-19.01312v-19.01312z m19.01312-19.01312h19.01312v19.01312h-19.01312v-19.01312z m-95.0656 57.03936h-19.01312v-19.01312h19.01312V-6.0544z m38.02624 0h-19.01312v-19.01312h19.01312V-6.0544z m-95.06432-19.0144h19.01312V-6.0544h-19.01312v-19.0144z m133.09056 19.0144h-19.01312v-19.01312h19.01312V-6.0544z m38.02624 0h-19.01312v-19.01312h19.01312V-6.0544zM574.46784 792.4928h19.01312V811.50592h-19.01312v-19.01312z m-19.01312-19.01312h19.01312V792.4928h-19.01312v-19.01312z m-19.01184 19.01312h19.01312V811.50592h-19.01312v-19.01312z m-19.0144-19.01312h19.01312V792.4928h-19.01312v-19.01312z m95.06688 19.01312h-19.01312v-19.01312h19.01312V792.4928z m-114.07872 0h19.01312V811.50592h-19.01312v-19.01312z m-19.0144-19.01312h19.01312V792.4928h-19.01312v-19.01312z m-57.03808 19.01312h19.01312V811.50592h-19.01312v-19.01312z m38.02496 0h19.01312V811.50592h-19.01312v-19.01312z m-19.01184-19.01312h19.01312V792.4928h-19.01312v-19.01312z m133.09056 57.03936h-19.01312v-19.01312h19.01312V830.51904z m-38.02496 0h-19.01312v-19.01312h19.01312V830.51904z m57.03808-19.01312h19.01312V830.51904h-19.01312v-19.01312z m-95.06432 19.01312h-19.01312v-19.01312h19.01312V830.51904z m-38.02752 0h-19.01312v-19.01312h19.01312V830.51904zM125.38624 245.18144l-16.46336-9.50656 9.50528-16.4608 16.46464 9.50784-9.50656 16.45952zM101.9648 209.70752l9.50656-16.46848 16.46336 9.50656-9.50656 16.46848-16.46336-9.50656z m42.43584 2.54464l-16.46592-9.50784 9.50656-16.46848 16.46464 9.50656-9.50528 16.46976z m-23.42272-35.48288l9.50656-16.45952 16.46464 9.50784-9.50656 16.45952-16.46464-9.50784zM82.95168 242.6368l9.50656-16.46848 16.46592 9.50784-9.50656 16.46848-16.46592-9.50784z m80.46208-63.31392l-16.46464-9.50656 9.50656-16.46976 16.46336 9.50784-9.50528 16.46848z m-23.424-35.48288l9.50656-16.45952 16.46464 9.50656-9.50528 16.45952-16.46592-9.50656z m54.49088-56.35072l16.46464 9.50656-9.50656 16.46848-16.46464-9.50656 9.50656-16.46848z m-12.05376 58.90432l-16.46464-9.50784 9.50656-16.46848 16.46592 9.50528-9.50784 16.47104z m-23.42272-35.48288l9.50656-16.4608 16.46464 9.50784-9.50656 16.45952-16.46464-9.50656z m1.86112 110.848l-9.50656 16.46848-16.46464-9.50656 9.50656-16.46848 16.46464 9.50656z m19.01312-32.92928l-9.50656 16.45952-16.46464-9.50784 9.50656-16.45952 16.46464 9.50784z m-47.5328 82.32832l-16.46464-9.50784 9.50656-16.46848 16.46464 9.50528-9.50656 16.47104z m66.54464-115.25888l-9.50656 16.45952-16.46464-9.50528 9.50656-16.45952 16.46464 9.50528z m9.50784-16.46848l-16.46464-9.50784 9.50656-16.45824 16.46464 9.50784-9.50656 16.45824z m701.07136 382.81344l16.4608 9.50656-9.50528 16.45952-16.46208-9.50656 9.50656-16.45952z m-35.47904 23.42272l9.50528-16.46976 16.46848 9.50656-9.50528 16.46976-16.46848-9.50656z m16.46848 9.50656l16.45696 9.50656-9.50656 16.45952-16.45696-9.50656 9.50656-16.45952z m-35.48416 23.42272l9.50528-16.46976 16.47232 9.50656-9.50912 16.46976-16.46848-9.50656z m47.5328-82.32704l16.46848 9.50528-9.50656 16.46976-16.46848-9.50656 9.50656-16.46848z m-31.06432 91.83488l16.4608 9.50528-9.50656 16.4608-16.4608-9.50656 9.50656-16.45952z m-35.48032 23.42144l9.50656-16.46976 16.46848 9.50656-9.50656 16.46848-16.46848-9.50528z m4.4096 68.41216l-16.4608-9.50656 9.50912-16.46976 16.45696 9.50656-9.50528 16.46976z m12.05888-58.9056l16.45824 9.50656-9.50656 16.46976-16.45696-9.50656 9.50528-16.46976z m-25.97376 6.9632l16.46848 9.50656-9.50656 16.45952-16.47232-9.50656 9.5104-16.45952z m106.43712-70.27712l-9.5104 16.46848-16.46848-9.50656 9.5104-16.46976 16.46848 9.50784z m-19.0144 32.92928l-9.50656 16.46848-16.46848-9.50656 9.50528-16.46848 16.46976 9.50656z m38.02624-65.85984l-9.50656 16.46976-16.46848-9.50656 9.50656-16.46976 16.46848 9.50656z m-57.03936 98.78912l-9.50528 16.46848-16.47232-9.50656 9.50912-16.46848 16.46848 9.50656z m-19.0144 32.93824l-9.50528 16.45952-16.46976-9.50656 9.50656-16.45952 16.46848 9.50656z m-42.43328-543.05024l16.45696-9.50656 9.50656 16.45952-16.45696 9.50528-9.50656-16.45824z m42.43328-2.5536l9.5104 16.46848-16.47232 9.50656-9.50656-16.46848 16.46848-9.50656z m-23.42144 35.48288l16.45824-9.50784 9.50912 16.45952-16.4608 9.50784-9.50656-16.45952z m42.43584-2.5536l9.50656 16.46848-16.46848 9.50784-9.50656-16.46976 16.46848-9.50656z m-38.02624-65.85856l9.50656 16.46848-16.46976 9.50784-9.50528-16.46848 16.46848-9.50784z m14.60224 101.34144l16.4608-9.50656 9.50528 16.45952-16.45696 9.50656-9.50912-16.45952z m42.43712-2.5536l9.50528 16.46976-16.46848 9.50656-9.50656-16.46848 16.46976-9.50784z m21.55776 75.37408l-16.4608 9.50656-9.50656-16.46848 16.4608-9.50656 9.50656 16.46848z m-44.9792-39.8912l16.45696-9.50784 9.5104 16.46848-16.46208 9.50784-9.50528-16.46848z m25.96736 6.96192l16.46848-9.50656 9.50528 16.45952-16.46848 9.50784-9.50528-16.4608z m-80.46336-63.3152l-9.50528-16.46848 16.46848-9.50784 9.50528 16.47104-16.46848 9.50528z m19.01184 32.93056l-9.50656-16.47104 16.46848-9.50528 9.50656 16.46848-16.46848 9.50784z m-47.5328-82.3296l16.46848-9.50528 9.50912 16.46848-16.47232 9.50784-9.50528-16.47104z m66.54848 115.25888l-9.5104-16.46848 16.47232-9.50784 9.50656 16.46976-16.46848 9.50656z m19.01056 32.928l-9.50656-16.45824 16.46848-9.50656 9.50656 16.45952-16.46848 9.50528zM175.46752 647.008l16.46592-9.50656 9.50656 16.45952-16.46464 9.50656-9.50784-16.45952z m23.42272-35.48288l9.50656 16.46848-16.46464 9.50656-9.50656-16.46976 16.46464-9.50528z m-42.43456 2.54464l16.46336-9.50656 9.50656 16.46848-16.46464 9.50656-9.50528-16.46848z m23.42272-35.47392l9.50528 16.45952-16.46464 9.50656-9.50656-16.45952 16.46592-9.50656z m21.5616 75.36512l16.46464-9.50656 9.50656 16.46848-16.46464 9.50656-9.50656-16.46848z m-63.99872-72.82048l16.46464-9.50656 9.50656 16.46976-16.46464 9.50528-9.50656-16.46848z m23.424-35.47392l9.50656 16.45952-16.46464 9.50656-9.50528-16.45952 16.46336-9.50656z m-61.44896-30.38592l16.46464-9.50656 9.50656 16.46976-16.46336 9.50656-9.50784-16.46976z m19.01184 32.93056l16.46464-9.50656 9.50656 16.46976-16.46592 9.50656-9.50528-16.46976z m23.42272-35.47392l9.50656 16.45952-16.46464 9.50656-9.50656-16.45952 16.46464-9.50656z m17.15328 143.77728l-9.50656-16.46976 16.46464-9.50656 9.50656 16.46976-16.46464 9.50656z m-19.0144-32.93824l-9.50656-16.4608 16.46464-9.50656 9.50656 16.4608-16.46464 9.50656z m38.02752 65.86752l-9.50656-16.46976 16.46464-9.50656 9.50656 16.46976-16.46464 9.50656z m-57.03936-98.7968l-9.50656-16.4608 16.46336-9.50656 9.50656 16.45952-16.46336 9.50784zM101.9648 557.71776l-9.50656-16.45952 16.46592-9.50656 9.50528 16.45952-16.46464 9.50656zM517.42848 573.84192c-105.00864 0-190.12992-85.12256-190.12992-190.12992s85.12128-190.12992 190.12992-190.12992c105.00864 0 190.12992 85.12256 190.12992 190.12992s-85.12128 190.12992-190.12992 190.12992m0-342.23488c-84.00768 0-152.10496 68.096-152.10496 152.10496 0 84 68.096 152.10496 152.10496 152.10496 84.00768 0 152.10496-68.10496 152.10496-152.10496 0-84.00768-68.09728-152.10496-152.10496-152.10496m458.13248 15.18976l-87.33312 84.66688c2.3488 17.09312 3.65696 34.50752 3.65696 52.2496s-1.30816 35.15648-3.65696 52.24832l87.33312 84.66688-0.04736 0.0384c6.1184 5.92256 7.72608 15.42016 3.28704 23.13472l-94.81216 164.65536c-3.49312 6.08128-9.84448 9.46048-16.38016 9.46048-1.74336 0-3.51616-0.2496-5.23648-0.7424l-0.01792 0.05504-116.8256-33.50528c-27.3408 21.35296-57.65248 39.04768-90.23872 52.3328l-29.43872 118.08896-0.05504-0.0192c-2.0608 8.27264-9.46048 14.41792-18.34496 14.41792H417.83808c-8.8896 0-16.28416-6.14528-18.35008-14.41792l-0.04608 0.0192-29.44768-118.08896c-32.59008-13.28512-62.89664-30.97984-90.22848-52.3328l-116.83584 33.50528-0.00896-0.05504a19.12064 19.12064 0 0 1-5.2352 0.7424c-6.53184 0-12.88576-3.3792-16.3904-9.46048l-94.8096-164.65536c-4.43776-7.71456-2.8224-17.21216 3.28064-23.13472l-0.04096-0.0384 87.32672-84.66688c-2.33472-17.09184-3.648-34.50624-3.648-52.24832 0-17.74208 1.31328-35.15648 3.648-52.2496L49.72544 246.7968l0.04096-0.03584c-6.10432-5.92384-7.71968-15.4304-3.28064-23.13472l94.8096-164.65792c3.50464-6.08 9.85856-9.4592 16.3904-9.4592 1.74464 0 3.50336 0.24064 5.2352 0.7424l0.00896-0.05632 116.83584 33.51424c27.33184-21.37088 57.6384-39.0656 90.22848-52.3328l29.44768-118.09792 0.04608 0.00896c2.06592-8.25216 9.46048-14.40768 18.35008-14.40768h189.61408c8.88448 0 16.28416 6.15552 18.34496 14.40768l0.05504-0.00896 29.43872 118.09792c32.58624 13.2672 62.89792 30.96064 90.23872 52.3328l116.8256-33.51424 0.01792 0.05632a18.7392 18.7392 0 0 1 5.23648-0.7424c6.5344 0 12.88704 3.3792 16.38016 9.4592l94.81216 164.65792c4.43904 7.7056 2.83136 17.21088-3.28704 23.13472l0.04608 0.03584z m-117.0112-155.95776l-102.592 29.41952a37.78048 37.78048 0 0 1-10.42688 1.47584 37.7984 37.7984 0 0 1-23.3216-8.04864c-24.85248-19.42144-52.17408-35.26912-81.19552-47.08608-11.20512-4.56704-19.56992-14.23232-22.51264-26.0032l-25.84576-103.69024H432.64l-25.8496 103.69024a38.00576 38.00576 0 0 1-22.51776 26.0032c-29.02656 11.81696-56.3392 27.66464-81.19552 47.08608a37.77152 37.77152 0 0 1-23.31136 8.04864c-3.49056 0-6.9952-0.4928-10.42944-1.47584l-102.59456-29.41952-80.00768 138.9504 76.6784 74.33344a38.08384 38.08384 0 0 1 11.21024 32.51968c-2.18624 15.96928-3.30112 31.79776-3.30112 47.06816s1.11488 31.1104 3.30112 47.06816a38.0992 38.0992 0 0 1-11.21024 32.51968l-76.6784 74.34496 80.00768 138.94912 102.59456-29.43872a38.144 38.144 0 0 1 10.42944-1.45792c8.3456 0 16.57088 2.75712 23.31136 8.02944 24.85632 19.43168 52.16896 35.26912 81.19552 47.09632a38.0032 38.0032 0 0 1 22.51776 26.0032L432.64 830.51904h160.01408l25.84576-103.69024c2.94272-11.77216 11.30752-21.43616 22.51264-26.0032a340.38016 340.38016 0 0 0 81.19552-47.09632 37.84832 37.84832 0 0 1 23.3216-8.02944c3.49056 0 7.00032 0.48256 10.42688 1.45792l102.592 29.43872 80.00512-138.94912-76.68224-74.34496a38.12736 38.12736 0 0 1-11.21408-32.51968c2.2016-15.95776 3.30496-31.79776 3.30496-47.06816s-1.10336-31.10016-3.30496-47.06816a38.11712 38.11712 0 0 1 11.21408-32.51968l76.68224-74.33344-80.00384-138.95424z"  horiz-adv-x="1024" />

    
    <glyph glyph-name="arrow" unicode="&#58907;" d="M311.559054-117.77368999999999L767.908116 383.315476 311.559054 883.765499a31.318073 31.318073 0 1 1-46.657538-41.544383L679.706197 383.315476 267.458094-73.672731a31.318073 31.318073 0 0 1 46.018393-42.183526z"  horiz-adv-x="1024" />

    
    <glyph glyph-name="electronics" unicode="&#58881;" d="M66.133 742.4h797.988c38.789 0 70.279-31.531 70.279-70.364v-539.77l23.467 23.467H159.879c-38.789 0-70.279 31.532-70.279 70.364v539.77L66.133 742.4z m0 46.933H42.667v-563.236c0-64.74 52.489-117.297 117.212-117.297H981.333V672.036c0 64.74-52.489 117.297-117.212 117.297H66.133zM408.297 129.777l-70.4-164.266c-5.105-11.913 0.413-25.708 12.326-30.814 11.912-5.105 25.708 0.413 30.813 12.326l70.4 164.266c5.105 11.913-0.413 25.708-12.325 30.814-11.913 5.105-25.708-0.413-30.814-12.326zM587.343 47.46l82.134-105.6c7.956-10.23 22.7-12.074 32.93-4.117s12.073 22.7 4.116 32.93l-82.133 105.6c-7.957 10.231-22.7 12.074-32.93 4.117s-12.074-22.7-4.117-32.93zM242.133-78.933h563.323c12.96 0 23.466 10.506 23.466 23.466S818.416-32 805.456-32H242.133c-12.96 0-23.466-10.506-23.466-23.467 0-12.96 10.506-23.466 23.466-23.466z"  horiz-adv-x="1024" />

    
    <glyph glyph-name="tubiaolunkuo-" unicode="&#58904;" d="M665.6 652.8c-6.4 0-12.8 0-12.8 6.4l-134.4 128h-12.8L371.2 652.8c-6.4-6.4-19.2-6.4-25.6 0s-6.4 19.2 0 25.6l134.4 134.4c19.2 19.2 44.8 19.2 64 0l134.4-134.4c6.4-6.4 6.4-19.2 0-25.6h-12.8zM512 217.60000000000002c-12.8 0-19.2 6.4-19.2 19.2V800c0 12.8 6.4 19.2 19.2 19.2s19.2-6.4 19.2-19.2v-556.8c0-12.8-6.4-25.6-19.2-25.6zM819.2-64H204.8C128-64 64-6.399999999999977 64 64V448c0 70.4 64 128 140.8 128H384c12.8 0 19.2-6.4 19.2-19.2s-6.4-19.2-19.2-19.2H204.8c-57.6 0-102.4-38.4-102.4-89.6v-384c0-51.2 44.8-89.6 102.4-89.6h614.4c57.6 0 102.4 38.4 102.4 89.6V448c0 51.2-44.8 89.6-102.4 89.6h-153.6c-12.8 0-19.2 6.4-19.2 19.2s6.4 19.2 19.2 19.2h153.6C896 576 960 518.4 960 448v-384c0-70.4-64-128-140.8-128z"  horiz-adv-x="1024" />

    
    <glyph glyph-name="yue" unicode="&#58883;" d="M654.090523 450.183124c1.209487-8.224511 3.144666-6.531229-5.079845-5.805537 0.96759-8.224511 2.902769-6.773127-5.321743-5.56364 1.209487-8.950203 3.386563-7.256921-5.321742-5.805537 1.451384-7.982614 2.902769-5.805537-5.56364-5.079845 1.693282-8.708306 3.386563-6.289332-5.805537-5.56364l-4.596051-5.805537c2.177076-9.433998 4.112256-7.740716-5.321742-6.047435 1.209487-8.224511 3.144666-6.289332-5.321742-5.321742 1.451384-8.708306 3.144666-6.531229-5.805538-5.321743 0.725692-7.982614 2.660871-6.289332-4.837947-5.56364 1.693282-9.917793 4.112256-8.708306-5.321743-6.289331l-5.805537-4.837948c0.725692-8.466408 2.902769-7.256921-5.321742-5.56364 9.192101-9.433998 1.209487-6.047435 17.416611-8.708306l22.254559 0.483795c14.997638 0 25.399225 3.144666 31.44666-6.531229 36.04271-12.094869 29.753378-38.703581 6.289332-62.89332-26.608712-19.351791-38.703581-5.079845-81.035623-10.885382l0.483795-21.770764c48.137579-6.047435 79.826136 11.12728 95.791363-24.915431 14.513843-64.828499-54.668808-45.476708-101.113106-51.76604-0.725692-38.219786 5.805537-67.731267-24.189738-80.551828-28.543891-12.094869-52.249835 3.386563-57.32968 27.334404-12.578664 12.094869-7.740716 21.28697-7.740716 53.459322a324.38439 324.38439 0 0 0-43.541529-1.693282c-18.384201 0-30.237173-3.386563-37.494094 9.675895-28.301994 10.401587-27.092507 47.895682-2.418974 59.264859 16.690919 7.498819 59.022961 4.112256 80.551829 3.628461l3.870358 33.623736-66.279883-0.483795c-10.15969 2.177076-7.498819 2.902769-12.094869 6.289332-24.189738 6.773127-26.124917 22.012662-22.012662 46.928092-1.451384 10.885382-4.59605 9.675895 4.837948 7.740717-2.418974 10.15969-3.870358 7.740716 6.531229 5.079845l11.611074 5.805537c15.239535 3.386563 61.92573-2.177076 68.940754 7.982614-7.982614-1.935179-5.56364-2.902769-4.59605 5.563639-9.675895-1.935179-8.466408-4.112256-6.047435 5.321743-9.675895-2.418974-7.256921-3.870358-4.837947 6.047434-8.708306-1.693282-6.773127-3.386563-5.079845 5.56364-9.192101-1.693282-7.982614-3.870358-6.047435 4.837948-9.675895-1.935179-8.224511-3.870358-5.56364 5.56364-9.675895-2.418974-7.256921-3.870358-5.079845 5.805537-7.982614-1.935179-5.805537-3.144666-5.079845 5.321742-10.401587-1.693282-9.433998-4.354153-6.531229 5.079845-9.433998-2.418974-7.256921-3.870358-4.837948 6.047435-9.192101-1.935179-7.498819-3.870358-5.563639 5.079845-9.675895-2.418974-7.015024-3.870358-5.321743 6.289332-7.982614-0.483795-6.773127-2.660871-5.321742 4.837947-10.15969-2.660871-7.256921-3.870358-5.56364 7.256922 0.483795 49.347066 33.381839 64.344704 63.377114 34.349428 19.351791-19.593688 44.992913-53.217424 70.392139-62.651422 62.893319 74.988189 87.80875 103.290182 123.367665 55.636398 11.12728-8.708306 2.418974 11.611074 11.369177-11.611074-10.401587-16.207125-7.256921-10.885382-18.384201-18.867996zM127.721818 196.190872c18.142304-111.756591 79.100444-179.004063 173.198526-212.869697 152.395351-55.152603 499.276198-62.893319 600.873098 105.951054 52.249835 87.083058 52.007937 211.902107 13.304356 314.950392C871.314372 520.575262 732.949069 678.77615 607.888122 678.292356c-39.913068 0-159.89417 4.837948-190.37324-2.902769-145.380327-36.04271-324.142493-263.668147-289.793064-478.956817zM334.060285 846.169139c-3.144666-27.576302-5.321742-18.384201 10.885383-38.219786l22.496456-27.092507c16.449022-19.835585 29.511481-35.317018 42.090145-55.152603h228.109232s80.793726 84.180289 77.407162 118.045922C656.993291 887.775489 395.502221 884.630823 333.818388 845.927242z"  horiz-adv-x="1024" />

    
    <glyph glyph-name="user" unicode="&#58955;" d="M486.4 332.8C331.1104 332.8 204.8 459.1104 204.8 614.4S331.1104 896 486.4 896 768 769.6896 768 614.4 641.6896 332.8 486.4 332.8z m0 512C359.3728 844.8 256 741.4272 256 614.4S359.3728 384 486.4 384 716.8 487.3728 716.8 614.4 613.4272 844.8 486.4 844.8zM896-128h-819.2C34.4576-128 0-93.5424 0-51.2c0 3.4816 0.7168 86.272 62.72 168.96 36.096 48.128 85.504 86.3744 146.8928 113.6128C284.5696 264.704 377.7024 281.6 486.4 281.6s201.8304-16.896 276.7872-50.2272c61.3888-27.2896 110.7968-65.4848 146.8928-113.6128C972.0832 35.072 972.8-47.7184 972.8-51.2c0-42.3424-34.4576-76.8-76.8-76.8z m-409.6 358.4c-178.5344 0-310.272-48.7936-380.9792-141.1072C52.4288 20.1216 51.2512-50.5856 51.2-51.3024a25.6 25.6 0 0 1 25.6-25.4976h819.2a25.6 25.6 0 0 1 25.6 25.6c0 0.6144-1.1776 71.3216-54.2208 140.4928C796.6208 181.6064 664.8832 230.4 486.4 230.4z"  horiz-adv-x="1024" />

    
    <glyph glyph-name="youhuiquan" unicode="&#58884;" d="M409.6 535.771429h21.942857v-58.514286h-21.942857zM409.6 455.314286h21.942857v-58.514286h-21.942857zM409.6 294.4h21.942857v-58.514286h-21.942857zM409.6 374.85714299999995h21.942857v-58.514286h-21.942857zM607.085714 462.628571c-3.657143 0-3.657143 1.828571-5.485714 3.657143-3.657143 0-3.657143 1.828571-5.485714 0-1.828571 0-25.6-38.4-27.428572-40.228571-1.828571-3.657143-3.657143-5.485714-3.657143-7.314286-1.828571-1.828571-1.828571-1.828571-3.657142-1.828571l-3.657143 3.657143c0 1.828571-1.828571 3.657143-3.657143 7.314285s-21.942857 32.914286-23.771429 34.742857c-5.485714 5.485714-7.314286 9.142857-9.142857 5.485715-3.657143-1.828571-3.657143-3.657143-7.314286-3.657143-3.657143-1.828571-3.657143-3.657143-5.485714-3.657143-3.657143-1.828571-3.657143-5.485714-1.828571-9.142857 5.485714-7.314286 10.971429-14.628571 14.628571-21.942857 3.657143-5.485714 9.142857-14.628571 12.8-18.285715 3.657143-5.485714 3.657143-7.314286 3.657143-9.142857 0-1.828571-3.657143-3.657143-3.657143-3.657143h-34.742857v-27.428571h45.714286v-9.142857h-45.714286v-21.942857h45.714286v-34.742857H566.857143v36.571428h45.714286v21.942857H566.857143v9.142857h45.714286v25.6H585.142857s-3.657143 1.828571-1.828571 3.657143c0 1.828571 1.828571 3.657143 3.657143 9.142857 3.657143 3.657143 18.285714 27.428571 21.942857 32.914286 3.657143 3.657143 3.657143 7.314286 5.485714 9.142857 1.828571 3.657143 3.657143 5.485714 1.828571 9.142857-1.828571-5.485714-7.314286-1.828571-9.142857 0zM512 793.6C285.257143 793.6 100.571429 608.914286 100.571429 382.171429S285.257143-29.257143000000042 512-29.257143000000042s411.428571 184.685714 411.428571 411.428572S738.742857 793.6 512 793.6z m230.4-358.4c-14.628571-3.657143-45.714286-12.8-45.714286-53.028571 0-43.885714 31.085714-51.2 45.714286-53.028572v-76.8c0-21.942857-14.628571-36.571429-34.742857-36.571428H318.171429c-20.114286 0-34.742857 14.628571-34.742858 36.571428V329.14285700000005c14.628571 3.657143 45.714286 12.8 45.714286 53.028572s-31.085714 51.2-45.714286 53.028571V512c0 21.942857 14.628571 36.571429 34.742858 36.571429h389.485714c20.114286 0 34.742857-14.628571 34.742857-36.571429v-76.8z"  horiz-adv-x="1024" />

    
    <glyph glyph-name="Dyanjing" unicode="&#59009;" d="M387.072 116.736H140.288L102.4 142.336 4.096 384v29.696l89.088 237.568 76.8-28.672-83.968-222.208 81.92-201.728h191.488l25.6 63.488 37.888 26.624H512v-81.92h-61.44l-25.6-64.512zM883.712 116.736H636.928l-37.888 25.6-25.6 64.512h-61.44v81.92h89.088l38.912-26.624 24.576-63.488h191.488l81.92 201.728-83.968 222.208 76.8 28.672 89.088-237.568V384L921.6 142.336zM54.272 462.848h907.264v-75.776H54.272zM137.216 350.208h254.976L333.824 220.16H197.632zM633.856 350.208h254.976L830.464 220.16H694.272z"  horiz-adv-x="1024" />

    
    <glyph glyph-name="fen_xiao" unicode="&#58908;" d="M514.6 460c-58 0-112.5 22.6-153.4 63.6s-63.6 95.5-63.6 153.4 22.6 112.5 63.6 153.4 95.5 63.6 153.4 63.6c58 0 112.5-22.6 153.4-63.6 41-41 63.6-95.5 63.6-153.4s-22.6-112.5-63.6-153.4c-40.9-41-95.4-63.6-153.4-63.6z m0 374c-86.6 0-157-70.4-157-157s70.4-157 157-157 157 70.4 157 157-70.4 157-157 157zM514.6-126.7c-81.2 0-147.2 66-147.2 147.2s66 147.2 147.2 147.2 147.2-66 147.2-147.2-66-147.2-147.2-147.2z m0 234.4c-48.1 0-87.2-39.1-87.2-87.2s39.1-87.2 87.2-87.2 87.2 39.1 87.2 87.2-39.1 87.2-87.2 87.2zM148.8-126.7c-81.2 0-147.2 66-147.2 147.2s66 147.2 147.2 147.2c81.2 0 147.2-66 147.2-147.2s-66-147.2-147.2-147.2z m0 234.4c-48.1 0-87.2-39.1-87.2-87.2s39.1-87.2 87.2-87.2 87.2 39.1 87.2 87.2-39.1 87.2-87.2 87.2zM484.6 490h60v-352.3h-60zM876.1-126.7c-81.2 0-147.2 66-147.2 147.2s66 147.2 147.2 147.2 147.2-66 147.2-147.2-66-147.2-147.2-147.2z m0 234.4c-48.1 0-87.2-39.1-87.2-87.2s39.1-87.2 87.2-87.2 87.2 39.1 87.2 87.2-39.1 87.2-87.2 87.2zM155.3 130.2l-53.3 27.6c38.6 74.7 96.8 137.6 168.3 182 73.5 45.7 158.4 69.9 245.3 69.9 84.8 0 168.4-24.6 241.9-71.2 69.8-44.3 127.7-106.3 167.4-179.4l-52.7-28.6c-73.4 135.2-210.1 219.2-356.5 219.2-152.3 0-290.3-84.1-360.4-219.5z"  horiz-adv-x="1024" />

    
    <glyph glyph-name="icon_verificationco" unicode="&#58909;" d="M521.550369-128C390.573877-128 154.543324 76.650769 150.450309 278.57286V708.339475c1.364338 36.837138 28.651108 66.852584 65.488246 70.945599 45.023169 4.093015 90.046338 15.007723 130.976492 32.744123 43.658831 12.279046 84.588984 35.4728 120.061784 65.488246 27.286769 23.193754 66.852584 24.558092 96.86803 4.093016 38.201477-27.286769 77.767292-50.480523 121.426123-68.216923 45.023169-13.643385 90.046338-24.558092 136.433846-31.379785 35.4728-6.821692 61.395231-36.837138 64.123907-73.674276 2.728677-77.767292 2.728677-356.092337-2.728676-433.85963C853.084614 15.255538 649.798184-128 521.550369-128z m0 976.866336c-6.821692 0-13.643385-1.364338-20.465077-6.821693-39.565815-35.4728-85.953323-61.395231-136.433845-75.038615-46.387508-19.100738-95.503692-31.379785-145.984215-35.4728-10.914708-2.728677-19.100738-12.279046-19.100739-24.558092v-428.402276c2.728677-178.728338 222.387169-358.821014 321.983876-358.821014s285.146738 120.061784 315.162184 358.821014c6.821692 141.8912 0 427.037937 0 427.037938-1.364338 13.643385-10.914708 24.558092-23.193754 27.286769-49.116184 8.186031-98.232369 19.100738-145.984215 34.108461-46.387508 19.100738-88.682 45.023169-128.247815 76.402954-5.457354 4.093015-12.279046 5.457354-19.100738 5.457354h1.364338zM304.620554 528.246798h58.666554v-125.519138c0-9.550369 5.457354-15.007723 15.007723-15.007723h5.457354V550.076213c0 9.550369-5.457354 15.007723-15.007723 15.007724h-66.852584v25.92243h111.875753c17.7364 0 31.379785-13.643385 31.379785-30.015446v-175.999661c9.550369-5.457354 16.372061-15.007723 16.372061-27.286769v-155.534584c0-16.372061-15.007723-30.015446-31.379784-30.015446h-73.674277v25.92243h27.286769c9.550369 0 17.7364 8.186031 17.7364 17.7364v132.340831c0 9.550369-5.457354 15.007723-15.007723 15.007723h-50.480523c-17.7364 0-31.379785 13.643385-31.379785 30.015446v135.069507z m-1.364338-261.952984v25.922431h90.046338v-25.922431h-90.046338z m341.084614 330.169907c25.922431-55.937877 54.573538-109.147077 92.775016-158.263261h-73.674277c-20.465077 27.286769-38.201477 60.030892-54.573539 90.046338-16.372061-30.015446-34.108461-62.759569-54.573538-90.046338h-73.674277c36.837138 49.116184 65.488246 103.689723 91.410677 158.263261h72.309938zM479.255877 172.154461v24.558092H737.115846V172.154461H479.255877z m23.193754 45.023169L491.534923 374.076552h57.302215l10.914708-156.898922h-57.302215z m-4.093016 180.092676v25.922431h216.929815v-25.922431H498.356615z m84.588985-180.092676L573.395231 374.076552h57.302215l10.914707-156.898922h-58.666553z m70.9456 0l10.914707 156.898922h57.302215l-10.914707-156.898922h-57.302215z"  horiz-adv-x="1024" />

    
    <glyph glyph-name="fangxiangyuanjiantou-xiangxia" unicode="&#58905;" d="M512 896a512 512 0 1 1 512-512A512.256 512.256 0 0 1 512 896z m0-981.333333a469.333333 469.333333 0 1 0 469.333333 469.333333 469.546667 469.546667 0 0 0-469.333333-469.333333zM490.666667 178.005333L330.112 374.613333 298.666667 345.642667 512 85.333333l213.333333 260.778667-32.128 28.416-159.872-196.437333V682.666667h-42.666666v-504.661334z"  horiz-adv-x="1024" />

    


  </font>
</defs>
</svg>
